<?xml version="1.0" standalone="no"?>
<!DOCTYPE svg PUBLIC "-//W3C//DTD SVG 20010904//EN"
 "http://www.w3.org/TR/2001/REC-SVG-20010904/DTD/svg10.dtd">
<svg version="1.0" xmlns="http://www.w3.org/2000/svg"
 width="80.000000pt" height="85.000000pt" viewBox="0 0 80.000000 85.000000"
 preserveAspectRatio="xMidYMid meet">

<g transform="translate(0.000000,85.000000) scale(0.100000,-0.100000)"
fill="#000000" stroke="none">
<path d="M265 837 c-73 -25 -122 -56 -169 -108 -25 -28 -46 -55 -46 -60 0 -6
14 6 31 25 16 19 58 49 91 66 76 37 167 41 250 10 49 -18 118 -70 118 -89 0
-4 -12 -12 -27 -19 -25 -10 -25 -11 -3 -5 14 3 31 8 37 10 14 5 63 -89 63
-119 0 -10 -19 -29 -45 -44 -25 -14 -45 -28 -45 -31 0 -3 20 7 44 21 25 14 48
26 52 26 12 0 -5 -121 -25 -164 -35 -81 -107 -144 -194 -172 -41 -12 -42 -13
-10 -13 18 -1 57 8 87 19 121 46 205 165 214 305 5 74 5 75 54 124 36 36 49
56 46 73 -3 22 -7 23 -85 23 -81 0 -82 0 -120 37 -79 77 -224 116 -318 85z
m436 -157 c24 -13 24 -31 0 -61 l-20 -24 -15 37 c-9 21 -16 42 -16 48 0 13 26
13 51 0z"/>
<path d="M450 640 c-8 -5 -10 -10 -5 -10 6 0 17 5 25 10 8 5 11 10 5 10 -5 0
-17 -5 -25 -10z"/>
<path d="M92 60 c0 -19 2 -27 5 -17 2 9 2 25 0 35 -3 9 -5 1 -5 -18z"/>
<path d="M262 60 c0 -19 2 -27 5 -17 2 9 2 25 0 35 -3 9 -5 1 -5 -18z"/>
<path d="M332 60 c0 -19 2 -27 5 -17 2 9 2 25 0 35 -3 9 -5 1 -5 -18z"/>
<path d="M492 60 c0 -19 2 -27 5 -17 2 9 2 25 0 35 -3 9 -5 1 -5 -18z"/>
<path d="M561 44 c0 -11 3 -14 6 -6 3 7 2 16 -1 19 -3 4 -6 -2 -5 -13z"/>
</g>
</svg>
